solid OpenSCAD_Model
  facet normal 0 0 -1
    outer loop
      vertex 2.34195 -2.601 0
      vertex 0.478973 -1.47414 0
      vertex 1.03714 -1.15187 0
    endloop
  endfacet
  facet normal 0 0 -1
    outer loop
      vertex 2.34195 2.601 0
      vertex 1.03714 1.15187 0
      vertex 0.478973 1.47414 0
    endloop
  endfacet
  facet normal -0 0 -1
    outer loop
      vertex 2.34195 2.601 0
      vertex 0.478973 1.47414 0
      vertex 1.08156 3.32869 0
    endloop
  endfacet
  facet normal -0 0 -1
    outer loop
      vertex 3.1974 1.42357 0
      vertex 1.41599 0.630432 0
      vertex 2.34195 2.601 0
    endloop
  endfacet
  facet normal 0 -0 -1
    outer loop
      vertex -1.75 3.03108 0
      vertex -0.774994 1.34233 0
      vertex -2.83156 2.05724 0
    endloop
  endfacet
  facet normal -0 0 -1
    outer loop
      vertex -0.774994 1.34233 0
      vertex -1.25397 0.911057 0
      vertex -2.83156 2.05724 0
    endloop
  endfacet
  facet normal 0 -0 -1
    outer loop
      vertex -0.365845 3.48082 0
      vertex -0.162018 1.5415 0
      vertex -1.75 3.03108 0
    endloop
  endfacet
  facet normal 0 0 -1
    outer loop
      vertex -2.83156 -2.05724 0
      vertex -0.774994 -1.34233 0
      vertex -1.75 -3.03108 0
    endloop
  endfacet
  facet normal -0 0 -1
    outer loop
      vertex 1.08156 -3.32869 0
      vertex -0.365845 -3.48082 0
      vertex 0.478973 -1.47414 0
    endloop
  endfacet
  facet normal -0 0 -1
    outer loop
      vertex -0.162018 -1.5415 0
      vertex -1.75 -3.03108 0
      vertex -0.774994 -1.34233 0
    endloop
  endfacet
  facet normal 0 0 -1
    outer loop
      vertex -0.162018 -1.5415 0
      vertex -0.365845 -3.48082 0
      vertex -1.75 -3.03108 0
    endloop
  endfacet
  facet normal 0 0 -1
    outer loop
      vertex 1.54999 0 0
      vertex 3.5 0 0
      vertex 3.1974 -1.42357 0
    endloop
  endfacet
  facet normal 0 0 -1
    outer loop
      vertex -2.83156 -2.05724 0
      vertex -1.25397 -0.911057 0
      vertex -0.774994 -1.34233 0
    endloop
  endfacet
  facet normal 0 0 -1
    outer loop
      vertex -2.83156 -2.05724 0
      vertex -1.51613 -0.32225 0
      vertex -1.25397 -0.911057 0
    endloop
  endfacet
  facet normal -0 0 -1
    outer loop
      vertex -1.51613 -0.32225 0
      vertex -3.42351 -0.727676 0
      vertex -3.42351 0.727676 0
    endloop
  endfacet
  facet normal 0 0 -1
    outer loop
      vertex -2.83156 -2.05724 0
      vertex -3.42351 -0.727676 0
      vertex -1.51613 -0.32225 0
    endloop
  endfacet
  facet normal 0 0 -1
    outer loop
      vertex -1.51613 0.32225 0
      vertex -3.42351 0.727676 0
      vertex -2.83156 2.05724 0
    endloop
  endfacet
  facet normal 0 0 -1
    outer loop
      vertex -1.51613 -0.32225 0
      vertex -3.42351 0.727676 0
      vertex -1.51613 0.32225 0
    endloop
  endfacet
  facet normal -0 0 -1
    outer loop
      vertex -1.25397 0.911057 0
      vertex -1.51613 0.32225 0
      vertex -2.83156 2.05724 0
    endloop
  endfacet
  facet normal 0 0 -1
    outer loop
      vertex -1.75 3.03108 0
      vertex -0.162018 1.5415 0
      vertex -0.774994 1.34233 0
    endloop
  endfacet
  facet normal 0 0 -1
    outer loop
      vertex -0.365845 3.48082 0
      vertex 0.478973 1.47414 0
      vertex -0.162018 1.5415 0
    endloop
  endfacet
  facet normal 0 0 -1
    outer loop
      vertex 0.478973 1.47414 0
      vertex -0.365845 3.48082 0
      vertex 1.08156 3.32869 0
    endloop
  endfacet
  facet normal 0 0 -1
    outer loop
      vertex 2.34195 2.601 0
      vertex 1.41599 0.630432 0
      vertex 1.03714 1.15187 0
    endloop
  endfacet
  facet normal 0 0 -1
    outer loop
      vertex 3.1974 1.42357 0
      vertex 1.54999 0 0
      vertex 1.41599 0.630432 0
    endloop
  endfacet
  facet normal 0 -0 -1
    outer loop
      vertex 3.1974 1.42357 0
      vertex 3.5 0 0
      vertex 1.54999 0 0
    endloop
  endfacet
  facet normal 0 -0 -1
    outer loop
      vertex 1.54999 0 0
      vertex 3.1974 -1.42357 0
      vertex 1.41599 -0.630432 0
    endloop
  endfacet
  facet normal 0 0 -1
    outer loop
      vertex 1.41599 -0.630432 0
      vertex 3.1974 -1.42357 0
      vertex 2.34195 -2.601 0
    endloop
  endfacet
  facet normal 0 0 -1
    outer loop
      vertex 1.03714 -1.15187 0
      vertex 1.41599 -0.630432 0
      vertex 2.34195 -2.601 0
    endloop
  endfacet
  facet normal 0 -0 -1
    outer loop
      vertex -0.162018 -1.5415 0
      vertex 0.478973 -1.47414 0
      vertex -0.365845 -3.48082 0
    endloop
  endfacet
  facet normal 0 0 -1
    outer loop
      vertex 0.478973 -1.47414 0
      vertex 2.34195 -2.601 0
      vertex 1.08156 -3.32869 0
    endloop
  endfacet
  facet normal 0 0 1
    outer loop
      vertex 1.03714 -1.15187 0.45
      vertex 0.478973 -1.47414 0.45
      vertex 2.34195 -2.601 0.45
    endloop
  endfacet
  facet normal -0 0 1
    outer loop
      vertex 0.478973 1.47414 0.45
      vertex 1.03714 1.15187 0.45
      vertex 2.34195 2.601 0.45
    endloop
  endfacet
  facet normal 0 0 1
    outer loop
      vertex 1.08156 3.32869 0.45
      vertex 0.478973 1.47414 0.45
      vertex 2.34195 2.601 0.45
    endloop
  endfacet
  facet normal 0 0 1
    outer loop
      vertex 2.34195 2.601 0.45
      vertex 1.41599 0.630432 0.45
      vertex 3.1974 1.42357 0.45
    endloop
  endfacet
  facet normal -0 0 1
    outer loop
      vertex -2.83156 2.05724 0.45
      vertex -0.774994 1.34233 0.45
      vertex -1.75 3.03108 0.45
    endloop
  endfacet
  facet normal 0 0 1
    outer loop
      vertex -2.83156 2.05724 0.45
      vertex -1.25397 0.911057 0.45
      vertex -0.774994 1.34233 0.45
    endloop
  endfacet
  facet normal -0 0 1
    outer loop
      vertex -1.75 3.03108 0.45
      vertex -0.162018 1.5415 0.45
      vertex -0.365845 3.48082 0.45
    endloop
  endfacet
  facet normal 0 -0 1
    outer loop
      vertex -1.75 -3.03108 0.45
      vertex -0.774994 -1.34233 0.45
      vertex -2.83156 -2.05724 0.45
    endloop
  endfacet
  facet normal 0 0 1
    outer loop
      vertex 0.478973 -1.47414 0.45
      vertex -0.365845 -3.48082 0.45
      vertex 1.08156 -3.32869 0.45
    endloop
  endfacet
  facet normal 0 0 1
    outer loop
      vertex -0.774994 -1.34233 0.45
      vertex -1.75 -3.03108 0.45
      vertex -0.162018 -1.5415 0.45
    endloop
  endfacet
  facet normal -0 0 1
    outer loop
      vertex -1.75 -3.03108 0.45
      vertex -0.365845 -3.48082 0.45
      vertex -0.162018 -1.5415 0.45
    endloop
  endfacet
  facet normal 0 -0 1
    outer loop
      vertex 3.1974 -1.42357 0.45
      vertex 3.5 0 0.45
      vertex 1.54999 0 0.45
    endloop
  endfacet
  facet normal 0 0 1
    outer loop
      vertex -0.774994 -1.34233 0.45
      vertex -1.25397 -0.911057 0.45
      vertex -2.83156 -2.05724 0.45
    endloop
  endfacet
  facet normal 0 0 1
    outer loop
      vertex -1.25397 -0.911057 0.45
      vertex -1.51613 -0.32225 0.45
      vertex -2.83156 -2.05724 0.45
    endloop
  endfacet
  facet normal 0 0 1
    outer loop
      vertex -3.42351 0.727676 0.45
      vertex -3.42351 -0.727676 0.45
      vertex -1.51613 -0.32225 0.45
    endloop
  endfacet
  facet normal 0 0 1
    outer loop
      vertex -1.51613 -0.32225 0.45
      vertex -3.42351 -0.727676 0.45
      vertex -2.83156 -2.05724 0.45
    endloop
  endfacet
  facet normal 0 0 1
    outer loop
      vertex -2.83156 2.05724 0.45
      vertex -3.42351 0.727676 0.45
      vertex -1.51613 0.32225 0.45
    endloop
  endfacet
  facet normal 0 0 1
    outer loop
      vertex -1.51613 0.32225 0.45
      vertex -3.42351 0.727676 0.45
      vertex -1.51613 -0.32225 0.45
    endloop
  endfacet
  facet normal 0 0 1
    outer loop
      vertex -2.83156 2.05724 0.45
      vertex -1.51613 0.32225 0.45
      vertex -1.25397 0.911057 0.45
    endloop
  endfacet
  facet normal 0 -0 1
    outer loop
      vertex -0.774994 1.34233 0.45
      vertex -0.162018 1.5415 0.45
      vertex -1.75 3.03108 0.45
    endloop
  endfacet
  facet normal -0 -0 1
    outer loop
      vertex -0.162018 1.5415 0.45
      vertex 0.478973 1.47414 0.45
      vertex -0.365845 3.48082 0.45
    endloop
  endfacet
  facet normal 0 0 1
    outer loop
      vertex 1.08156 3.32869 0.45
      vertex -0.365845 3.48082 0.45
      vertex 0.478973 1.47414 0.45
    endloop
  endfacet
  facet normal -0 0 1
    outer loop
      vertex 1.03714 1.15187 0.45
      vertex 1.41599 0.630432 0.45
      vertex 2.34195 2.601 0.45
    endloop
  endfacet
  facet normal -0 0 1
    outer loop
      vertex 1.41599 0.630432 0.45
      vertex 1.54999 0 0.45
      vertex 3.1974 1.42357 0.45
    endloop
  endfacet
  facet normal 0 0 1
    outer loop
      vertex 1.54999 0 0.45
      vertex 3.5 0 0.45
      vertex 3.1974 1.42357 0.45
    endloop
  endfacet
  facet normal -0 0 1
    outer loop
      vertex 1.41599 -0.630432 0.45
      vertex 3.1974 -1.42357 0.45
      vertex 1.54999 0 0.45
    endloop
  endfacet
  facet normal 0 -0 1
    outer loop
      vertex 2.34195 -2.601 0.45
      vertex 3.1974 -1.42357 0.45
      vertex 1.41599 -0.630432 0.45
    endloop
  endfacet
  facet normal 0 0 1
    outer loop
      vertex 2.34195 -2.601 0.45
      vertex 1.41599 -0.630432 0.45
      vertex 1.03714 -1.15187 0.45
    endloop
  endfacet
  facet normal 0 0 1
    outer loop
      vertex -0.365845 -3.48082 0.45
      vertex 0.478973 -1.47414 0.45
      vertex -0.162018 -1.5415 0.45
    endloop
  endfacet
  facet normal 0 -0 1
    outer loop
      vertex 1.08156 -3.32869 0.45
      vertex 2.34195 -2.601 0.45
      vertex 0.478973 -1.47414 0.45
    endloop
  endfacet
  facet normal 0.500002 -0.866024 0
    outer loop
      vertex 2.34195 -2.601 0
      vertex 1.08156 -3.32869 0.45
      vertex 1.08156 -3.32869 0
    endloop
  endfacet
  facet normal 0.500002 -0.866024 0
    outer loop
      vertex 2.34195 -2.601 0
      vertex 2.34195 -2.601 0.45
      vertex 1.08156 -3.32869 0.45
    endloop
  endfacet
  facet normal 0.809018 -0.587784 0
    outer loop
      vertex 3.1974 -1.42357 0
      vertex 2.34195 -2.601 0.45
      vertex 2.34195 -2.601 0
    endloop
  endfacet
  facet normal 0.809018 -0.587784 0
    outer loop
      vertex 3.1974 -1.42357 0
      vertex 3.1974 -1.42357 0.45
      vertex 2.34195 -2.601 0.45
    endloop
  endfacet
  facet normal 0.978146 -0.207919 0
    outer loop
      vertex 3.5 0 0
      vertex 3.1974 -1.42357 0.45
      vertex 3.1974 -1.42357 0
    endloop
  endfacet
  facet normal 0.978146 -0.207919 0
    outer loop
      vertex 3.5 0 0
      vertex 3.5 0 0.45
      vertex 3.1974 -1.42357 0.45
    endloop
  endfacet
  facet normal 0.978146 0.207919 0
    outer loop
      vertex 3.1974 1.42357 0
      vertex 3.5 0 0.45
      vertex 3.5 0 0
    endloop
  endfacet
  facet normal 0.978146 0.207919 -0
    outer loop
      vertex 3.1974 1.42357 0
      vertex 3.1974 1.42357 0.45
      vertex 3.5 0 0.45
    endloop
  endfacet
  facet normal 0.809018 0.587784 0
    outer loop
      vertex 2.34195 2.601 0
      vertex 3.1974 1.42357 0.45
      vertex 3.1974 1.42357 0
    endloop
  endfacet
  facet normal 0.809018 0.587784 -0
    outer loop
      vertex 2.34195 2.601 0
      vertex 2.34195 2.601 0.45
      vertex 3.1974 1.42357 0.45
    endloop
  endfacet
  facet normal 0.500002 0.866024 0
    outer loop
      vertex 1.08156 3.32869 0
      vertex 2.34195 2.601 0.45
      vertex 2.34195 2.601 0
    endloop
  endfacet
  facet normal 0.500002 0.866024 -0
    outer loop
      vertex 1.08156 3.32869 0
      vertex 1.08156 3.32869 0.45
      vertex 2.34195 2.601 0.45
    endloop
  endfacet
  facet normal 0.10453 0.994522 0
    outer loop
      vertex -0.365845 3.48082 0
      vertex 1.08156 3.32869 0.45
      vertex 1.08156 3.32869 0
    endloop
  endfacet
  facet normal 0.10453 0.994522 -0
    outer loop
      vertex -0.365845 3.48082 0
      vertex -0.365845 3.48082 0.45
      vertex 1.08156 3.32869 0.45
    endloop
  endfacet
  facet normal -0.309017 0.951056 0
    outer loop
      vertex -1.75 3.03108 0
      vertex -0.365845 3.48082 0.45
      vertex -0.365845 3.48082 0
    endloop
  endfacet
  facet normal -0.309017 0.951056 0
    outer loop
      vertex -1.75 3.03108 0
      vertex -1.75 3.03108 0.45
      vertex -0.365845 3.48082 0.45
    endloop
  endfacet
  facet normal -0.66913 0.743145 0
    outer loop
      vertex -2.83156 2.05724 0
      vertex -1.75 3.03108 0.45
      vertex -1.75 3.03108 0
    endloop
  endfacet
  facet normal -0.66913 0.743145 0
    outer loop
      vertex -2.83156 2.05724 0
      vertex -2.83156 2.05724 0.45
      vertex -1.75 3.03108 0.45
    endloop
  endfacet
  facet normal -0.913548 0.406731 0
    outer loop
      vertex -3.42351 0.727676 0
      vertex -2.83156 2.05724 0.45
      vertex -2.83156 2.05724 0
    endloop
  endfacet
  facet normal -0.913548 0.406731 0
    outer loop
      vertex -3.42351 0.727676 0
      vertex -3.42351 0.727676 0.45
      vertex -2.83156 2.05724 0.45
    endloop
  endfacet
  facet normal -1 0 0
    outer loop
      vertex -3.42351 -0.727676 0
      vertex -3.42351 0.727676 0.45
      vertex -3.42351 0.727676 0
    endloop
  endfacet
  facet normal -1 0 0
    outer loop
      vertex -3.42351 -0.727676 0
      vertex -3.42351 -0.727676 0.45
      vertex -3.42351 0.727676 0.45
    endloop
  endfacet
  facet normal -0.913548 -0.406731 0
    outer loop
      vertex -2.83156 -2.05724 0
      vertex -3.42351 -0.727676 0.45
      vertex -3.42351 -0.727676 0
    endloop
  endfacet
  facet normal -0.913548 -0.406731 0
    outer loop
      vertex -2.83156 -2.05724 0
      vertex -2.83156 -2.05724 0.45
      vertex -3.42351 -0.727676 0.45
    endloop
  endfacet
  facet normal -0.66913 -0.743145 0
    outer loop
      vertex -1.75 -3.03108 0
      vertex -2.83156 -2.05724 0.45
      vertex -2.83156 -2.05724 0
    endloop
  endfacet
  facet normal -0.66913 -0.743145 0
    outer loop
      vertex -1.75 -3.03108 0
      vertex -1.75 -3.03108 0.45
      vertex -2.83156 -2.05724 0.45
    endloop
  endfacet
  facet normal -0.309017 -0.951056 0
    outer loop
      vertex -0.365845 -3.48082 0
      vertex -1.75 -3.03108 0.45
      vertex -1.75 -3.03108 0
    endloop
  endfacet
  facet normal -0.309017 -0.951056 0
    outer loop
      vertex -0.365845 -3.48082 0
      vertex -0.365845 -3.48082 0.45
      vertex -1.75 -3.03108 0.45
    endloop
  endfacet
  facet normal 0.10453 -0.994522 0
    outer loop
      vertex 1.08156 -3.32869 0
      vertex -0.365845 -3.48082 0.45
      vertex -0.365845 -3.48082 0
    endloop
  endfacet
  facet normal 0.10453 -0.994522 0
    outer loop
      vertex 1.08156 -3.32869 0
      vertex 1.08156 -3.32869 0.45
      vertex -0.365845 -3.48082 0.45
    endloop
  endfacet
  facet normal 0.669132 0.743144 -0
    outer loop
      vertex -1.25397 -0.911057 0
      vertex -1.25397 -0.911057 0.45
      vertex -0.774994 -1.34233 0
    endloop
  endfacet
  facet normal 0.669132 0.743144 0
    outer loop
      vertex -0.774994 -1.34233 0.45
      vertex -0.774994 -1.34233 0
      vertex -1.25397 -0.911057 0.45
    endloop
  endfacet
  facet normal 0.913542 0.406745 -0
    outer loop
      vertex -1.51613 -0.32225 0
      vertex -1.51613 -0.32225 0.45
      vertex -1.25397 -0.911057 0
    endloop
  endfacet
  facet normal 0.913542 0.406745 0
    outer loop
      vertex -1.25397 -0.911057 0.45
      vertex -1.25397 -0.911057 0
      vertex -1.51613 -0.32225 0.45
    endloop
  endfacet
  facet normal 1 0 -0
    outer loop
      vertex -1.51613 0.32225 0
      vertex -1.51613 0.32225 0.45
      vertex -1.51613 -0.32225 0
    endloop
  endfacet
  facet normal 1 -0 0
    outer loop
      vertex -1.51613 -0.32225 0.45
      vertex -1.51613 -0.32225 0
      vertex -1.51613 0.32225 0.45
    endloop
  endfacet
  facet normal 0.913542 -0.406745 0
    outer loop
      vertex -1.25397 0.911057 0
      vertex -1.25397 0.911057 0.45
      vertex -1.51613 0.32225 0
    endloop
  endfacet
  facet normal 0.913542 -0.406745 0
    outer loop
      vertex -1.51613 0.32225 0.45
      vertex -1.51613 0.32225 0
      vertex -1.25397 0.911057 0.45
    endloop
  endfacet
  facet normal 0.669132 -0.743144 0
    outer loop
      vertex -0.774994 1.34233 0
      vertex -0.774994 1.34233 0.45
      vertex -1.25397 0.911057 0
    endloop
  endfacet
  facet normal 0.669132 -0.743144 0
    outer loop
      vertex -1.25397 0.911057 0.45
      vertex -1.25397 0.911057 0
      vertex -0.774994 1.34233 0.45
    endloop
  endfacet
  facet normal 0.30902 -0.951056 0
    outer loop
      vertex -0.162018 1.5415 0
      vertex -0.162018 1.5415 0.45
      vertex -0.774994 1.34233 0
    endloop
  endfacet
  facet normal 0.30902 -0.951056 0
    outer loop
      vertex -0.774994 1.34233 0.45
      vertex -0.774994 1.34233 0
      vertex -0.162018 1.5415 0.45
    endloop
  endfacet
  facet normal -0.104512 -0.994524 0
    outer loop
      vertex 0.478973 1.47414 0
      vertex 0.478973 1.47414 0.45
      vertex -0.162018 1.5415 0
    endloop
  endfacet
  facet normal -0.104512 -0.994524 -0
    outer loop
      vertex -0.162018 1.5415 0.45
      vertex -0.162018 1.5415 0
      vertex 0.478973 1.47414 0.45
    endloop
  endfacet
  facet normal -0.500014 -0.866017 0
    outer loop
      vertex 1.03714 1.15187 0
      vertex 1.03714 1.15187 0.45
      vertex 0.478973 1.47414 0
    endloop
  endfacet
  facet normal -0.500014 -0.866017 -0
    outer loop
      vertex 0.478973 1.47414 0.45
      vertex 0.478973 1.47414 0
      vertex 1.03714 1.15187 0.45
    endloop
  endfacet
  facet normal -0.809015 -0.587788 0
    outer loop
      vertex 1.41599 0.630432 0
      vertex 1.41599 0.630432 0.45
      vertex 1.03714 1.15187 0
    endloop
  endfacet
  facet normal -0.809015 -0.587788 -0
    outer loop
      vertex 1.03714 1.15187 0.45
      vertex 1.03714 1.15187 0
      vertex 1.41599 0.630432 0.45
    endloop
  endfacet
  facet normal -0.978148 -0.207908 0
    outer loop
      vertex 1.54999 0 0
      vertex 1.54999 0 0.45
      vertex 1.41599 0.630432 0
    endloop
  endfacet
  facet normal -0.978148 -0.207908 -0
    outer loop
      vertex 1.41599 0.630432 0.45
      vertex 1.41599 0.630432 0
      vertex 1.54999 0 0.45
    endloop
  endfacet
  facet normal -0.978148 0.207908 0
    outer loop
      vertex 1.41599 -0.630432 0
      vertex 1.41599 -0.630432 0.45
      vertex 1.54999 0 0
    endloop
  endfacet
  facet normal -0.978148 0.207908 0
    outer loop
      vertex 1.54999 0 0.45
      vertex 1.54999 0 0
      vertex 1.41599 -0.630432 0.45
    endloop
  endfacet
  facet normal -0.809015 0.587788 0
    outer loop
      vertex 1.03714 -1.15187 0
      vertex 1.03714 -1.15187 0.45
      vertex 1.41599 -0.630432 0
    endloop
  endfacet
  facet normal -0.809015 0.587788 0
    outer loop
      vertex 1.41599 -0.630432 0.45
      vertex 1.41599 -0.630432 0
      vertex 1.03714 -1.15187 0.45
    endloop
  endfacet
  facet normal -0.500014 0.866017 0
    outer loop
      vertex 0.478973 -1.47414 0
      vertex 0.478973 -1.47414 0.45
      vertex 1.03714 -1.15187 0
    endloop
  endfacet
  facet normal -0.500014 0.866017 0
    outer loop
      vertex 1.03714 -1.15187 0.45
      vertex 1.03714 -1.15187 0
      vertex 0.478973 -1.47414 0.45
    endloop
  endfacet
  facet normal -0.104512 0.994524 0
    outer loop
      vertex -0.162018 -1.5415 0
      vertex -0.162018 -1.5415 0.45
      vertex 0.478973 -1.47414 0
    endloop
  endfacet
  facet normal -0.104512 0.994524 0
    outer loop
      vertex 0.478973 -1.47414 0.45
      vertex 0.478973 -1.47414 0
      vertex -0.162018 -1.5415 0.45
    endloop
  endfacet
  facet normal 0.30902 0.951056 -0
    outer loop
      vertex -0.774994 -1.34233 0
      vertex -0.774994 -1.34233 0.45
      vertex -0.162018 -1.5415 0
    endloop
  endfacet
  facet normal 0.30902 0.951056 0
    outer loop
      vertex -0.162018 -1.5415 0.45
      vertex -0.162018 -1.5415 0
      vertex -0.774994 -1.34233 0.45
    endloop
  endfacet
endsolid OpenSCAD_Model
